<svg viewBox="0 0 540 960" width="540" height="960" xmlns="http://www.w3.org/2000/svg" xmlns:xlink="http://www.w3.org/1999/xlink" version="1.1">
    <path d="M0 116L8.2 98.5C16.3 81 32.7 46 49 39.7C65.3 33.3 81.7 55.7 98 55.7C114.3 55.7 130.7 33.3 147 36.5C163.3 39.7 179.7 68.3 196 71.5C212.3 74.7 228.7 52.3 245.2 52.3C261.7 52.3 278.3 74.7 294.8 69.7C311.3 64.7 327.7 32.3 344 21.2C360.3 10 376.7 20 393 26.5C409.3 33 425.7 36 442 31C458.3 26 474.7 13 491 13C507.3 13 523.7 26 531.8 32.5L540 39L540 0L531.8 0C523.7 0 507.3 0 491 0C474.7 0 458.3 0 442 0C425.7 0 409.3 0 393 0C376.7 0 360.3 0 344 0C327.7 0 311.3 0 294.8 0C278.3 0 261.7 0 245.2 0C228.7 0 212.3 0 196 0C179.7 0 163.3 0 147 0C130.7 0 114.3 0 98 0C81.7 0 65.3 0 49 0C32.7 0 16.3 0 8.2 0L0 0Z" fill="#0066ff" />
    <path d="M0 203L8.2 180.5C16.3 158 32.7 113 49 117.7C65.3 122.3 81.7 176.7 98 184.7C114.3 192.7 130.7 154.3 147 144.8C163.3 135.3 179.7 154.7 196 153.2C212.3 151.7 228.7 129.3 245.2 150.2C261.7 171 278.3 235 294.8 255.7C311.3 276.3 327.7 253.7 344 223.2C360.3 192.7 376.7 154.3 393 146.3C409.3 138.3 425.7 160.7 442 162.3C458.3 164 474.7 145 491 145C507.3 145 523.7 164 531.8 173.5L540 183L540 37L531.8 30.8C523.7 24.7 507.3 12.3 491 12.3C474.7 12.3 458.3 24.7 442 29.3C425.7 34 409.3 31 393 24.8C376.7 18.7 360.3 9.3 344 20.5C327.7 31.7 311.3 63.3 294.8 68C278.3 72.7 261.7 50.3 245.2 50.3C228.7 50.3 212.3 72.7 196 69.5C179.7 66.3 163.3 37.7 147 34.5C130.7 31.3 114.3 53.7 98 53.7C81.7 53.7 65.3 31.3 49 37.7C32.7 44 16.3 79 8.2 96.5L0 114Z" fill="#005ffb" />
    <path d="M0 212L8.2 207.2C16.3 202.3 32.7 192.7 49 226.3C65.3 260 81.7 337 98 354.7C114.3 372.3 130.7 330.7 147 297C163.3 263.3 179.7 237.7 196 208.8C212.3 180 228.7 148 245.2 172C261.7 196 278.3 276 294.8 308C311.3 340 327.7 324 344 293.7C360.3 263.3 376.7 218.7 393 223.5C409.3 228.3 425.7 282.7 442 298.7C458.3 314.7 474.7 292.3 491 284.3C507.3 276.3 523.7 282.7 531.8 285.8L540 289L540 181L531.8 171.5C523.7 162 507.3 143 491 143C474.7 143 458.3 162 442 160.3C425.7 158.7 409.3 136.3 393 144.3C376.7 152.3 360.3 190.7 344 221.2C327.7 251.7 311.3 274.3 294.8 253.7C278.3 233 261.7 169 245.2 148.2C228.7 127.3 212.3 149.7 196 151.2C179.7 152.7 163.3 133.3 147 142.8C130.7 152.3 114.3 190.7 98 182.7C81.7 174.7 65.3 120.3 49 115.7C32.7 111 16.3 156 8.2 178.5L0 201Z" fill="#0058f6" />
    <path d="M0 308L8.2 306.5C16.3 305 32.7 302 49 327.7C65.3 353.3 81.7 407.7 98 450.8C114.3 494 130.7 526 147 540.3C163.3 554.7 179.7 551.3 196 543.3C212.3 535.3 228.7 522.7 245.2 525.8C261.7 529 278.3 548 294.8 552.8C311.3 557.7 327.7 548.3 344 524.3C360.3 500.3 376.7 461.7 393 442.3C409.3 423 425.7 423 442 434.3C458.3 445.7 474.7 468.3 491 511.7C507.3 555 523.7 619 531.8 651L540 683L540 287L531.8 283.8C523.7 280.7 507.3 274.3 491 282.3C474.7 290.3 458.3 312.7 442 296.7C425.7 280.7 409.3 226.3 393 221.5C376.7 216.7 360.3 261.3 344 291.7C327.7 322 311.3 338 294.8 306C278.3 274 261.7 194 245.2 170C228.7 146 212.3 178 196 206.8C179.7 235.7 163.3 261.3 147 295C130.7 328.7 114.3 370.3 98 352.7C81.7 335 65.3 258 49 224.3C32.7 190.7 16.3 200.3 8.2 205.2L0 210Z" fill="#0052f1" />
    <path d="M0 423L8.2 403.8C16.3 384.7 32.7 346.3 49 370.3C65.3 394.3 81.7 480.7 98 543.2C114.3 605.7 130.7 644.3 147 665.2C163.3 686 179.7 689 196 681C212.3 673 228.7 654 245.2 649.2C261.7 644.3 278.3 653.7 294.8 661.7C311.3 669.7 327.7 676.3 344 658.8C360.3 641.3 376.7 599.7 393 570.8C409.3 542 425.7 526 442 542C458.3 558 474.7 606 491 634.8C507.3 663.7 523.7 673.3 531.8 678.2L540 683L540 681L531.8 649C523.7 617 507.3 553 491 509.7C474.7 466.3 458.3 443.7 442 432.3C425.7 421 409.3 421 393 440.3C376.7 459.7 360.3 498.3 344 522.3C327.7 546.3 311.3 555.7 294.8 550.8C278.3 546 261.7 527 245.2 523.8C228.7 520.7 212.3 533.3 196 541.3C179.7 549.3 163.3 552.7 147 538.3C130.7 524 114.3 492 98 448.8C81.7 405.7 65.3 351.3 49 325.7C32.7 300 16.3 303 8.2 304.5L0 306Z" fill="#004aed" />
    <path d="M0 740L8.2 749.7C16.3 759.3 32.7 778.7 49 793.2C65.3 807.7 81.7 817.3 98 818.8C114.3 820.3 130.7 813.7 147 800.8C163.3 788 179.7 769 196 761C212.3 753 228.7 756 245.2 754.3C261.7 752.7 278.3 746.3 294.8 760.8C311.3 775.3 327.7 810.7 344 817.2C360.3 823.7 376.7 801.3 393 780.5C409.3 759.7 425.7 740.3 442 735.5C458.3 730.7 474.7 740.3 491 746.7C507.3 753 523.7 756 531.8 757.5L540 759L540 681L531.8 676.2C523.7 671.3 507.3 661.7 491 632.8C474.7 604 458.3 556 442 540C425.7 524 409.3 540 393 568.8C376.7 597.7 360.3 639.3 344 656.8C327.7 674.3 311.3 667.7 294.8 659.7C278.3 651.7 261.7 642.3 245.2 647.2C228.7 652 212.3 671 196 679C179.7 687 163.3 684 147 663.2C130.7 642.3 114.3 603.7 98 541.2C81.7 478.7 65.3 392.3 49 368.3C32.7 344.3 16.3 382.7 8.2 401.8L0 421Z" fill="#0043e7" />
    <path d="M0 855L8.2 863C16.3 871 32.7 887 49 899.8C65.3 912.7 81.7 922.3 98 908C114.3 893.7 130.7 855.3 147 845.8C163.3 836.3 179.7 855.7 196 858.8C212.3 862 228.7 849 245.2 847.3C261.7 845.7 278.3 855.3 294.8 858.5C311.3 861.7 327.7 858.3 344 848.7C360.3 839 376.7 823 393 823C409.3 823 425.7 839 442 840.7C458.3 842.3 474.7 829.7 491 826.5C507.3 823.3 523.7 829.7 531.8 832.8L540 836L540 757L531.8 755.5C523.7 754 507.3 751 491 744.7C474.7 738.3 458.3 728.7 442 733.5C425.7 738.3 409.3 757.7 393 778.5C376.7 799.3 360.3 821.7 344 815.2C327.7 808.7 311.3 773.3 294.8 758.8C278.3 744.3 261.7 750.7 245.2 752.3C228.7 754 212.3 751 196 759C179.7 767 163.3 786 147 798.8C130.7 811.7 114.3 818.3 98 816.8C81.7 815.3 65.3 805.7 49 791.2C32.7 776.7 16.3 757.3 8.2 747.7L0 738Z" fill="#003be2" />
    <path d="M0 961L8.2 961C16.3 961 32.7 961 49 961C65.3 961 81.7 961 98 961C114.3 961 130.7 961 147 961C163.3 961 179.7 961 196 961C212.3 961 228.7 961 245.2 961C261.7 961 278.3 961 294.8 961C311.3 961 327.7 961 344 961C360.3 961 376.7 961 393 961C409.3 961 425.7 961 442 961C458.3 961 474.7 961 491 961C507.3 961 523.7 961 531.8 961L540 961L540 834L531.8 830.8C523.7 827.7 507.3 821.3 491 824.5C474.7 827.7 458.3 840.3 442 838.7C425.7 837 409.3 821 393 821C376.7 821 360.3 837 344 846.7C327.7 856.3 311.3 859.7 294.8 856.5C278.3 853.3 261.7 843.7 245.2 845.3C228.7 847 212.3 860 196 856.8C179.7 853.7 163.3 834.3 147 843.8C130.7 853.3 114.3 891.7 98 906C81.7 920.3 65.3 910.7 49 897.8C32.7 885 16.3 869 8.2 861L0 853Z" fill="#0033dd" />
</svg>