<svg width="256" height="256" viewBox="0 0 256 256" fill="none" xmlns="http://www.w3.org/2000/svg" xmlns:xlink="http://www.w3.org/1999/xlink">
    <rect width="256" height="256" x="0" y="0" rx="0" fill="#f66" stroke="#ffffff" stroke-width="0" stroke-opacity="100%" paint-order="stroke"/>
    <svg xmlns="http://www.w3.org/2000/svg" width="128" height="128" viewBox="0 0 24 24" fill="none" stroke="#FFFFFF" stroke-width="2" stroke-linecap="round" stroke-linejoin="round" class="text-white" alignment-baseline="middle" x="64" y="64">
        <path d="M18 2H6a2 2 0 0 0-2 2v16a2 2 0 0 0 2 2h12a2 2 0 0 0 2-2V4a2 2 0 0 0-2-2Z"></path>
        <path d="m9 16 .348-.24c1.465-1.013 3.84-1.013 5.304 0L15 16" />
        <path d="M8 7h.01" />
        <path d="M16 7h.01" />
        <path d="M12 7h.01" />
        <path d="M12 11h.01" />
        <path d="M16 11h.01" />
        <path d="M8 11h.01" />
        <path d="M10 22v-6.5m4 0V22" />
    </svg>
</svg>