<svg width="256" height="256" viewBox="0 0 256 256" fill="none" xmlns="http://www.w3.org/2000/svg" xmlns:xlink="http://www.w3.org/1999/xlink">
    <rect id="r4" width="256" height="256" x="0" y="0" rx="0" fill="#7aa8de" stroke="#FFFFFF" stroke-width="0" stroke-opacity="100%" paint-order="stroke"/>
    <svg xmlns="http://www.w3.org/2000/svg" width="128" height="128" viewBox="0 0 24 24" fill="none" stroke="#FFFFFF" stroke-width="2" stroke-linecap="round" stroke-linejoin="round" class="text-white" alignment-baseline="middle" x="64" y="64">
        <path d="m2 7 4.41-4.41A2 2 0 0 1 7.83 2h8.34a2 2 0 0 1 1.42.59L22 7"/>
        <path d="M4 12v8a2 2 0 0 0 2 2h12a2 2 0 0 0 2-2v-8"/>
        <path d="M15 22v-4a2 2 0 0 0-2-2h-2a2 2 0 0 0-2 2v4"/>
        <path d="M2 7h20"/>
        <path d="M22 7v3a2 2 0 0 1-2 2v0a2.7 2.7 0 0 1-1.59-.63.7.7 0 0 0-.82 0A2.7 2.7 0 0 1 16 12a2.7 2.7 0 0 1-1.59-.63.7.7 0 0 0-.82 0A2.7 2.7 0 0 1 12 12a2.7 2.7 0 0 1-1.59-.63.7.7 0 0 0-.82 0A2.7 2.7 0 0 1 8 12a2.7 2.7 0 0 1-1.59-.63.7.7 0 0 0-.82 0A2.7 2.7 0 0 1 4 12v0a2 2 0 0 1-2-2V7"/>
    </svg>
</svg>