<svg id="background-story-demo" viewBox="0 0 512 512" width="512" height="512" xmlns="http://www.w3.org/2000/svg" xmlns:xlink="http://www.w3.org/1999/xlink" version="1.1"><path d="M0 119L4.7 120.7C9.3 122.3 18.7 125.7 28.2 115.3C37.7 105 47.3 81 56.8 65.7C66.3 50.3 75.7 43.7 85.2 45.5C94.7 47.3 104.3 57.7 113.8 56.8C123.3 56 132.7 44 142.2 43C151.7 42 161.3 52 170.8 53.7C180.3 55.3 189.7 48.7 199.2 45.3C208.7 42 218.3 42 227.8 54.8C237.3 67.7 246.7 93.3 256 95C265.3 96.7 274.7 74.3 284.2 64C293.7 53.7 303.3 55.3 312.8 56.2C322.3 57 331.7 57 341.2 55.3C350.7 53.7 360.3 50.3 369.8 59C379.3 67.7 388.7 88.3 398.2 103.7C407.7 119 417.3 129 426.8 132.3C436.3 135.7 445.7 132.3 455.2 119.5C464.7 106.7 474.3 84.3 483.8 74.2C493.3 64 502.7 66 507.3 67L512 68L512 0L507.3 0C502.7 0 493.3 0 483.8 0C474.3 0 464.7 0 455.2 0C445.7 0 436.3 0 426.8 0C417.3 0 407.7 0 398.2 0C388.7 0 379.3 0 369.8 0C360.3 0 350.7 0 341.2 0C331.7 0 322.3 0 312.8 0C303.3 0 293.7 0 284.2 0C274.7 0 265.3 0 256 0C246.7 0 237.3 0 227.8 0C218.3 0 208.7 0 199.2 0C189.7 0 180.3 0 170.8 0C161.3 0 151.7 0 142.2 0C132.7 0 123.3 0 113.8 0C104.3 0 94.7 0 85.2 0C75.7 0 66.3 0 56.8 0C47.3 0 37.7 0 28.2 0C18.7 0 9.3 0 4.7 0L0 0Z" fill="#7fb9ff"></path><path d="M0 206L4.7 217.8C9.3 229.7 18.7 253.3 28.2 260.2C37.7 267 47.3 257 56.8 234C66.3 211 75.7 175 85.2 157C94.7 139 104.3 139 113.8 133C123.3 127 132.7 115 142.2 109C151.7 103 161.3 103 170.8 101.3C180.3 99.7 189.7 96.3 199.2 99C208.7 101.7 218.3 110.3 227.8 140.2C237.3 170 246.7 221 256 244.8C265.3 268.7 274.7 265.3 284.2 256C293.7 246.7 303.3 231.3 312.8 234.8C322.3 238.3 331.7 260.7 341.2 250.5C350.7 240.3 360.3 197.7 369.8 179.7C379.3 161.7 388.7 168.3 398.2 197.3C407.7 226.3 417.3 277.7 426.8 283.7C436.3 289.7 445.7 250.3 455.2 233.2C464.7 216 474.3 221 483.8 210.7C493.3 200.3 502.7 174.7 507.3 161.8L512 149L512 66L507.3 65C502.7 64 493.3 62 483.8 72.2C474.3 82.3 464.7 104.7 455.2 117.5C445.7 130.3 436.3 133.7 426.8 130.3C417.3 127 407.7 117 398.2 101.7C388.7 86.3 379.3 65.7 369.8 57C360.3 48.3 350.7 51.7 341.2 53.3C331.7 55 322.3 55 312.8 54.2C303.3 53.3 293.7 51.7 284.2 62C274.7 72.3 265.3 94.7 256 93C246.7 91.3 237.3 65.7 227.8 52.8C218.3 40 208.7 40 199.2 43.3C189.7 46.7 180.3 53.3 170.8 51.7C161.3 50 151.7 40 142.2 41C132.7 42 123.3 54 113.8 54.8C104.3 55.7 94.7 45.3 85.2 43.5C75.7 41.7 66.3 48.3 56.8 63.7C47.3 79 37.7 103 28.2 113.3C18.7 123.7 9.3 120.3 4.7 118.7L0 117Z" fill="#65acff"></path><path d="M0 313L4.7 314.8C9.3 316.7 18.7 320.3 28.2 324.7C37.7 329 47.3 334 56.8 340.8C66.3 347.7 75.7 356.3 85.2 352.8C94.7 349.3 104.3 333.7 113.8 317.3C123.3 301 132.7 284 142.2 280.7C151.7 277.3 161.3 287.7 170.8 295.3C180.3 303 189.7 308 199.2 320.8C208.7 333.7 218.3 354.3 227.8 357C237.3 359.7 246.7 344.3 256 341.7C265.3 339 274.7 349 284.2 359.2C293.7 369.3 303.3 379.7 312.8 376.3C322.3 373 331.7 356 341.2 351.8C350.7 347.7 360.3 356.3 369.8 352.8C379.3 349.3 388.7 333.7 398.2 344.7C407.7 355.7 417.3 393.3 426.8 394.3C436.3 395.3 445.7 359.7 455.2 340C464.7 320.3 474.3 316.7 483.8 322.5C493.3 328.3 502.7 343.7 507.3 351.3L512 359L512 147L507.3 159.8C502.7 172.7 493.3 198.3 483.8 208.7C474.3 219 464.7 214 455.2 231.2C445.7 248.3 436.3 287.7 426.8 281.7C417.3 275.7 407.7 224.3 398.2 195.3C388.7 166.3 379.3 159.7 369.8 177.7C360.3 195.7 350.7 238.3 341.2 248.5C331.7 258.7 322.3 236.3 312.8 232.8C303.3 229.3 293.7 244.7 284.2 254C274.7 263.3 265.3 266.7 256 242.8C246.7 219 237.3 168 227.8 138.2C218.3 108.3 208.7 99.7 199.2 97C189.7 94.3 180.3 97.7 170.8 99.3C161.3 101 151.7 101 142.2 107C132.7 113 123.3 125 113.8 131C104.3 137 94.7 137 85.2 155C75.7 173 66.3 209 56.8 232C47.3 255 37.7 265 28.2 258.2C18.7 251.3 9.3 227.7 4.7 215.8L0 204Z" fill="#479fff"></path><path d="M0 380L4.7 374C9.3 368 18.7 356 28.2 359.3C37.7 362.7 47.3 381.3 56.8 389C66.3 396.7 75.7 393.3 85.2 384.8C94.7 376.3 104.3 362.7 113.8 356.7C123.3 350.7 132.7 352.3 142.2 355.8C151.7 359.3 161.3 364.7 170.8 370.7C180.3 376.7 189.7 383.3 199.2 389.2C208.7 395 218.3 400 227.8 405.2C237.3 410.3 246.7 415.7 256 418.3C265.3 421 274.7 421 284.2 418.3C293.7 415.7 303.3 410.3 312.8 410.3C322.3 410.3 331.7 415.7 341.2 421.7C350.7 427.7 360.3 434.3 369.8 422.3C379.3 410.3 388.7 379.7 398.2 382.3C407.7 385 417.3 421 426.8 421.8C436.3 422.7 445.7 388.3 455.2 378C464.7 367.7 474.3 381.3 483.8 389.8C493.3 398.3 502.7 401.7 507.3 403.3L512 405L512 357L507.3 349.3C502.7 341.7 493.3 326.3 483.8 320.5C474.3 314.7 464.7 318.3 455.2 338C445.7 357.7 436.3 393.3 426.8 392.3C417.3 391.3 407.7 353.7 398.2 342.7C388.7 331.7 379.3 347.3 369.8 350.8C360.3 354.3 350.7 345.7 341.2 349.8C331.7 354 322.3 371 312.8 374.3C303.3 377.7 293.7 367.3 284.2 357.2C274.7 347 265.3 337 256 339.7C246.7 342.3 237.3 357.7 227.8 355C218.3 352.3 208.7 331.7 199.2 318.8C189.7 306 180.3 301 170.8 293.3C161.3 285.7 151.7 275.3 142.2 278.7C132.7 282 123.3 299 113.8 315.3C104.3 331.7 94.7 347.3 85.2 350.8C75.7 354.3 66.3 345.7 56.8 338.8C47.3 332 37.7 327 28.2 322.7C18.7 318.3 9.3 314.7 4.7 312.8L0 311Z" fill="#3091f2"></path><path d="M0 405L4.7 405C9.3 405 18.7 405 28.2 408.5C37.7 412 47.3 419 56.8 422.5C66.3 426 75.7 426 85.2 425.2C94.7 424.3 104.3 422.7 113.8 421.8C123.3 421 132.7 421 142.2 418.3C151.7 415.7 161.3 410.3 170.8 418.8C180.3 427.3 189.7 449.7 199.2 454C208.7 458.3 218.3 444.7 227.8 438.7C237.3 432.7 246.7 434.3 256 445.5C265.3 456.7 274.7 477.3 284.2 481.7C293.7 486 303.3 474 312.8 466.3C322.3 458.7 331.7 455.3 341.2 458.7C350.7 462 360.3 472 369.8 468.5C379.3 465 388.7 448 398.2 449.8C407.7 451.7 417.3 472.3 426.8 472.3C436.3 472.3 445.7 451.7 455.2 449C464.7 446.3 474.3 461.7 483.8 471C493.3 480.3 502.7 483.7 507.3 485.3L512 487L512 403L507.3 401.3C502.7 399.7 493.3 396.3 483.8 387.8C474.3 379.3 464.7 365.7 455.2 376C445.7 386.3 436.3 420.7 426.8 419.8C417.3 419 407.7 383 398.2 380.3C388.7 377.7 379.3 408.3 369.8 420.3C360.3 432.3 350.7 425.7 341.2 419.7C331.7 413.7 322.3 408.3 312.8 408.3C303.3 408.3 293.7 413.7 284.2 416.3C274.7 419 265.3 419 256 416.3C246.7 413.7 237.3 408.3 227.8 403.2C218.3 398 208.7 393 199.2 387.2C189.7 381.3 180.3 374.7 170.8 368.7C161.3 362.7 151.7 357.3 142.2 353.8C132.7 350.3 123.3 348.7 113.8 354.7C104.3 360.7 94.7 374.3 85.2 382.8C75.7 391.3 66.3 394.7 56.8 387C47.3 379.3 37.7 360.7 28.2 357.3C18.7 354 9.3 366 4.7 372L0 378Z" fill="#2a80d9"></path><path d="M0 513L4.7 513C9.3 513 18.7 513 28.2 513C37.7 513 47.3 513 56.8 513C66.3 513 75.7 513 85.2 513C94.7 513 104.3 513 113.8 513C123.3 513 132.7 513 142.2 513C151.7 513 161.3 513 170.8 513C180.3 513 189.7 513 199.2 513C208.7 513 218.3 513 227.8 513C237.3 513 246.7 513 256 513C265.3 513 274.7 513 284.2 513C293.7 513 303.3 513 312.8 513C322.3 513 331.7 513 341.2 513C350.7 513 360.3 513 369.8 513C379.3 513 388.7 513 398.2 513C407.7 513 417.3 513 426.8 513C436.3 513 445.7 513 455.2 513C464.7 513 474.3 513 483.8 513C493.3 513 502.7 513 507.3 513L512 513L512 485L507.3 483.3C502.7 481.7 493.3 478.3 483.8 469C474.3 459.7 464.7 444.3 455.2 447C445.7 449.7 436.3 470.3 426.8 470.3C417.3 470.3 407.7 449.7 398.2 447.8C388.7 446 379.3 463 369.8 466.5C360.3 470 350.7 460 341.2 456.7C331.7 453.3 322.3 456.7 312.8 464.3C303.3 472 293.7 484 284.2 479.7C274.7 475.3 265.3 454.7 256 443.5C246.7 432.3 237.3 430.7 227.8 436.7C218.3 442.7 208.7 456.3 199.2 452C189.7 447.7 180.3 425.3 170.8 416.8C161.3 408.3 151.7 413.7 142.2 416.3C132.7 419 123.3 419 113.8 419.8C104.3 420.7 94.7 422.3 85.2 423.2C75.7 424 66.3 424 56.8 420.5C47.3 417 37.7 410 28.2 406.5C18.7 403 9.3 403 4.7 403L0 403Z" fill="#2470c0"></path></svg>