<svg xmlns="http://www.w3.org/2000/svg" xmlns:xlink="http://www.w3.org/1999/xlink" viewBox="0 0 540 960" width="540" height="960" version="1.1">
    <rect x="0" y="0" width="540" height="960" fill="#002255" />
    <path d="M0 156L30 156L30 173L60 173L60 166L90 166L90 181L120 181L120 178L150 178L150 217L180 217L180 143L210 143L210 202L240 202L240 172L270 172L270 171L300 171L300 218L330 218L330 198L360 198L360 144L390 144L390 183L420 183L420 155L450 155L450 169L480 169L480 187L510 187L510 216L540 216L540 239L540 961L540 961L510 961L510 961L480 961L480 961L450 961L450 961L420 961L420 961L390 961L390 961L360 961L360 961L330 961L330 961L300 961L300 961L270 961L270 961L240 961L240 961L210 961L210 961L180 961L180 961L150 961L150 961L120 961L120 961L90 961L90 961L60 961L60 961L30 961L30 961L0 961Z" fill="#003399" />
    <path d="M0 264L30 264L30 277L60 277L60 243L90 243L90 251L120 251L120 286L150 286L150 299L180 299L180 305L210 305L210 241L240 241L240 263L270 263L270 321L300 321L300 282L330 282L330 315L360 315L360 283L390 283L390 283L420 283L420 257L450 257L450 260L480 260L480 305L510 305L510 292L540 292L540 326L540 961L540 961L510 961L510 961L480 961L480 961L450 961L450 961L420 961L420 961L390 961L390 961L360 961L360 961L330 961L330 961L300 961L300 961L270 961L270 961L240 961L240 961L210 961L210 961L180 961L180 961L150 961L150 961L120 961L120 961L90 961L90 961L60 961L60 961L30 961L30 961L0 961Z" fill="#0044a3" />
    <path d="M0 375L30 375L30 409L60 409L60 336L90 336L90 364L120 364L120 424L150 424L150 339L180 339L180 425L210 425L210 423L240 423L240 376L270 376L270 358L300 358L300 391L330 391L330 343L360 343L360 337L390 337L390 424L420 424L420 347L450 347L450 414L480 414L480 414L510 414L510 346L540 346L540 372L540 961L540 961L510 961L510 961L480 961L480 961L450 961L450 961L420 961L420 961L390 961L390 961L360 961L360 961L330 961L330 961L300 961L300 961L270 961L270 961L240 961L240 961L210 961L210 961L180 961L180 961L150 961L150 961L120 961L120 961L90 961L90 961L60 961L60 961L30 961L30 961L0 961Z" fill="#0054ac" />
    <path d="M0 439L30 439L30 498L60 498L60 446L90 446L90 514L120 514L120 440L150 440L150 505L180 505L180 435L210 435L210 460L240 460L240 491L270 491L270 439L300 439L300 475L330 475L330 447L360 447L360 489L390 489L390 431L420 431L420 447L450 447L450 473L480 473L480 446L510 446L510 436L540 436L540 446L540 961L540 961L510 961L510 961L480 961L480 961L450 961L450 961L420 961L420 961L390 961L390 961L360 961L360 961L330 961L330 961L300 961L300 961L270 961L270 961L240 961L240 961L210 961L210 961L180 961L180 961L150 961L150 961L120 961L120 961L90 961L90 961L60 961L60 961L30 961L30 961L0 961Z" fill="#0063b3" />
    <path d="M0 588L30 588L30 543L60 543L60 532L90 532L90 554L120 554L120 529L150 529L150 616L180 616L180 572L210 572L210 557L240 557L240 535L270 535L270 611L300 611L300 581L330 581L330 609L360 609L360 618L390 618L390 591L420 591L420 568L450 568L450 537L480 537L480 591L510 591L510 568L540 568L540 561L540 961L540 961L510 961L510 961L480 961L480 961L450 961L450 961L420 961L420 961L390 961L390 961L360 961L360 961L330 961L330 961L300 961L300 961L270 961L270 961L240 961L240 961L210 961L210 961L180 961L180 961L150 961L150 961L120 961L120 961L90 961L90 961L60 961L60 961L30 961L30 961L0 961Z" fill="#0072b9" />
    <path d="M0 714L30 714L30 691L60 691L60 710L90 710L90 653L120 653L120 688L150 688L150 646L180 646L180 667L210 667L210 708L240 708L240 630L270 630L270 630L300 630L300 696L330 696L330 642L360 642L360 661L390 661L390 677L420 677L420 655L450 655L450 689L480 689L480 698L510 698L510 708L540 708L540 680L540 961L540 961L510 961L510 961L480 961L480 961L450 961L450 961L420 961L420 961L390 961L390 961L360 961L360 961L330 961L330 961L300 961L300 961L270 961L270 961L240 961L240 961L210 961L210 961L180 961L180 961L150 961L150 961L120 961L120 961L90 961L90 961L60 961L60 961L30 961L30 961L0 961Z" fill="#0080bc" />
    <path d="M0 777L30 777L30 803L60 803L60 796L90 796L90 766L120 766L120 776L150 776L150 789L180 789L180 771L210 771L210 764L240 764L240 756L270 756L270 808L300 808L300 731L330 731L330 807L360 807L360 721L390 721L390 802L420 802L420 719L450 719L450 795L480 795L480 726L510 726L510 761L540 761L540 813L540 961L540 961L510 961L510 961L480 961L480 961L450 961L450 961L420 961L420 961L390 961L390 961L360 961L360 961L330 961L330 961L300 961L300 961L270 961L270 961L240 961L240 961L210 961L210 961L180 961L180 961L150 961L150 961L120 961L120 961L90 961L90 961L60 961L60 961L30 961L30 961L0 961Z" fill="#008dbc" />
    <path d="M0 895L30 895L30 875L60 875L60 859L90 859L90 889L120 889L120 828L150 828L150 883L180 883L180 857L210 857L210 883L240 883L240 823L270 823L270 891L300 891L300 904L330 904L330 886L360 886L360 886L390 886L390 852L420 852L420 854L450 854L450 875L480 875L480 860L510 860L510 869L540 869L540 885L540 961L540 961L510 961L510 961L480 961L480 961L450 961L450 961L420 961L420 961L390 961L390 961L360 961L360 961L330 961L330 961L300 961L300 961L270 961L270 961L240 961L240 961L210 961L210 961L180 961L180 961L150 961L150 961L120 961L120 961L90 961L90 961L60 961L60 961L30 961L30 961L0 961Z" fill="#0099bb" />
</svg>