<svg width="256" height="256" viewBox="0 0 256 256" fill="none" xmlns="http://www.w3.org/2000/svg" xmlns:xlink="http://www.w3.org/1999/xlink">
    <rect id="r4" width="256" height="256" x="0" y="0" rx="0" fill="#e08a4a" stroke="#FFFFFF" stroke-width="0" stroke-opacity="100%" paint-order="stroke"/>
    <svg xmlns="http://www.w3.org/2000/svg" width="128" height="128" viewBox="0 0 24 24" fill="none" stroke="#FFFFFF" stroke-width="2" stroke-linecap="round" stroke-linejoin="round" class="text-white" alignment-baseline="middle" x="64" y="64">
        <path d="M4 22h16a2 2 0 0 0 2-2V4a2 2 0 0 0-2-2H8a2 2 0 0 0-2 2v16a2 2 0 0 1-2 2Zm0 0a2 2 0 0 1-2-2v-9c0-1.1.9-2 2-2h2"/>
        <path d="M18 14h-8"/>
        <path d="M15 18h-5"/>
        <path d="M10 6h8v4h-8V6Z"/>
    </svg>
</svg>